<global>
amp_veltrack=0
ampeg_release=0.45

<group>
group_label=PP
xf_cccurve=gain
xfin_hicc1=64
xfin_locc1=0
xfout_hicc1=127
xfout_locc1=64

<region>
hikey=g#4
hivel=127
lokey=g4
lovel=1
pitch_keycenter=g#4
sample=6Horns_marcato_half_PP_G#4.opus

<region>
hikey=g#3
hivel=127
lokey=g3
lovel=1
pitch_keycenter=g#3
sample=6Horns_marcato_half_PP_G#3.opus

<region>
hikey=g#2
hivel=127
lokey=g2
lovel=1
pitch_keycenter=g#2
sample=6Horns_marcato_half_PP_G#2.opus

<region>
hivel=127
key=F2
lovel=0
sample=6Horns_marcato_half_PP_F2.opus

<region>
hikey=f#4
hivel=127
lokey=f4
lovel=1
pitch_keycenter=f#4
sample=6Horns_marcato_half_PP_F#4.opus

<region>
hikey=f#3
hivel=127
lokey=f3
lovel=1
pitch_keycenter=f#3
sample=6Horns_marcato_half_PP_F#3.opus

<region>
hivel=127
key=f#2
lovel=1
sample=6Horns_marcato_half_PP_F#2.opus

<region>
hikey=e5
hivel=127
lokey=d#5
lovel=1
pitch_keycenter=E5
sample=6Horns_marcato_half_PP_E5.opus

<region>
hikey=e4
hivel=127
lokey=d#4
lovel=1
pitch_keycenter=e4
sample=6Horns_marcato_half_PP_E4.opus

<region>
hikey=e3
hivel=127
lokey=d#3
lovel=1
pitch_keycenter=e3
sample=6Horns_marcato_half_PP_E3.opus

<region>
hikey=d5
hivel=127
lokey=c#5
lovel=1
pitch_keycenter=d5
sample=6Horns_marcato_half_PP_D5.opus

<region>
hikey=d4
hivel=127
lokey=c#4
lovel=1
pitch_keycenter=d4
sample=6Horns_marcato_half_PP_D4.opus

<region>
hikey=d3
hivel=127
lokey=c#3
lovel=1
pitch_keycenter=d3
sample=6Horns_marcato_half_PP_D3.opus

<region>
hikey=c5
hivel=127
lokey=b4
lovel=1
pitch_keycenter=c5
sample=6Horns_marcato_half_PP_C5.opus

<region>
hikey=c4
hivel=127
lokey=b3
lovel=1
pitch_keycenter=c4
sample=6Horns_marcato_half_PP_C4.opus

<region>
hikey=c3
hivel=127
lokey=b2
lovel=1
pitch_keycenter=c3
sample=6Horns_marcato_half_PP_C3.opus

<region>
hikey=a#4
hivel=127
lokey=a4
lovel=1
pitch_keycenter=a#4
sample=6Horns_marcato_half_PP_A#4.opus

<region>
hikey=a#3
hivel=127
lokey=a3
lovel=1
pitch_keycenter=a#3
sample=6Horns_marcato_half_PP_A#3.opus

<region>
hikey=a#2
hivel=127
lokey=a2
lovel=1
pitch_keycenter=a#2
sample=6Horns_marcato_half_PP_A#2.opus

<group>
group_label=FF
xf_cccurve=gain
xfin_hicc1=127
xfin_locc1=64
xfout_hicc1=127
xfout_locc1=127

<region>
hikey=g#4
hivel=127
lokey=g4
lovel=1
pitch_keycenter=g#4
sample=6Horns_marcato_half_FF_G#4.opus

<region>
hikey=g#3
hivel=127
lokey=g3
lovel=1
pitch_keycenter=g#3
sample=6Horns_marcato_half_FF_G#3.opus

<region>
hikey=g#2
hivel=127
lokey=g2
lovel=1
pitch_keycenter=g#2
sample=6Horns_marcato_half_FF_G#2.opus

<region>
hivel=127
key=F2
lovel=0
sample=6Horns_marcato_half_FF_F2.opus

<region>
hikey=f#4
hivel=127
lokey=f4
lovel=1
pitch_keycenter=f#4
sample=6Horns_marcato_half_FF_F#4.opus

<region>
hikey=f#3
hivel=127
lokey=f3
lovel=1
pitch_keycenter=f#3
sample=6Horns_marcato_half_FF_F#3.opus

<region>
hivel=127
key=f#2
lovel=1
sample=6Horns_marcato_half_FF_F#2.opus

<region>
hikey=e5
hivel=127
lokey=d#5
lovel=1
pitch_keycenter=E5
sample=6Horns_marcato_half_FF_E5.opus

<region>
hikey=e4
hivel=127
lokey=d#4
lovel=1
pitch_keycenter=e4
sample=6Horns_marcato_half_FF_E4.opus

<region>
hikey=e3
hivel=127
lokey=d#3
lovel=1
pitch_keycenter=e3
sample=6Horns_marcato_half_FF_E3.opus

<region>
hikey=d5
hivel=127
lokey=c#5
lovel=1
pitch_keycenter=d5
sample=6Horns_marcato_half_FF_D5.opus

<region>
hikey=d4
hivel=127
lokey=c#4
lovel=1
pitch_keycenter=d4
sample=6Horns_marcato_half_FF_D4.opus

<region>
hikey=d3
hivel=127
lokey=c#3
lovel=1
pitch_keycenter=d3
sample=6Horns_marcato_half_FF_D3.opus

<region>
hikey=c5
hivel=127
lokey=b4
lovel=1
pitch_keycenter=c5
sample=6Horns_marcato_half_FF_C5.opus

<region>
hikey=c4
hivel=127
lokey=b3
lovel=1
pitch_keycenter=c4
sample=6Horns_marcato_half_FF_C4.opus

<region>
hikey=c3
hivel=127
lokey=b2
lovel=1
pitch_keycenter=c3
sample=6Horns_marcato_half_FF_C3.opus

<region>
hikey=a#4
hivel=127
lokey=a4
lovel=1
pitch_keycenter=a#4
sample=6Horns_marcato_half_FF_A#4.opus

<region>
hikey=a#3
hivel=127
lokey=a3
lovel=1
pitch_keycenter=a#3
sample=6Horns_marcato_half_FF_A#3.opus

<region>
hikey=a#2
hivel=127
lokey=a2
lovel=1
pitch_keycenter=a#2
sample=6Horns_marcato_half_FF_A#2.opus

<group>
group_label=RR1
seq_length=4
seq_position=1

<region>
hivel=127
key=A#2
lovel=85
offset=2380
sample=6Horns_staccato_FF_A#2_RR1.opus

<region>
hivel=127
key=A#3
lovel=85
offset=179
sample=6Horns_staccato_FF_A#3_RR1.opus

<region>
hivel=127
key=A#4
lovel=85
offset=140
sample=6Horns_staccato_FF_A#4_RR1.opus

<region>
hivel=127
key=A2
lovel=85
offset=1282
sample=6Horns_staccato_FF_A2_RR1.opus

<region>
hivel=127
key=A3
lovel=85
offset=412
sample=6Horns_staccato_FF_A3_RR1.opus

<region>
hivel=127
key=A4
lovel=85
sample=6Horns_staccato_FF_A4_RR1.opus

<region>
hivel=127
key=B2
lovel=85
offset=604
sample=6Horns_staccato_FF_B2_RR1.opus

<region>
hivel=127
key=B3
lovel=85
offset=450
sample=6Horns_staccato_FF_B3_RR1.opus

<region>
hivel=127
key=B4
lovel=85
sample=6Horns_staccato_FF_B4_RR1.opus

<region>
hivel=127
key=C#3
lovel=85
offset=433
sample=6Horns_staccato_FF_C#3_RR1.opus

<region>
hivel=127
key=C#4
lovel=85
offset=2407
sample=6Horns_staccato_FF_C#4_RR1.opus

<region>
hivel=127
key=C3
lovel=85
offset=313
sample=6Horns_staccato_FF_C3_RR1.opus

<region>
hivel=127
key=C4
lovel=85
offset=504
sample=6Horns_staccato_FF_C4_RR1.opus

<region>
hikey=C#5
hivel=127
lokey=C5
lovel=85
offset=379
pitch_keycenter=C5
sample=6Horns_staccato_FF_C5_RR1.opus

<region>
hivel=127
key=D#3
lovel=85
offset=335
sample=6Horns_staccato_FF_D#3_RR1.opus

<region>
hivel=127
key=D#4
lovel=85
offset=701
sample=6Horns_staccato_FF_D#4_RR1.opus

<region>
hikey=D#5
hivel=127
lokey=D5
lovel=85
offset=763
pitch_keycenter=D#5
sample=6Horns_staccato_FF_D#5_RR1.opus

<region>
hivel=127
key=D3
lovel=85
offset=573
sample=6Horns_staccato_FF_D3_RR1.opus

<region>
hivel=127
key=D4
lovel=85
offset=1325
sample=6Horns_staccato_FF_D4_RR1.opus

<region>
hivel=127
key=E3
lovel=85
offset=123
sample=6Horns_staccato_FF_E3_RR1.opus

<region>
hivel=127
key=E4
lovel=85
offset=1183
sample=6Horns_staccato_FF_E4_RR1.opus

<region>
hivel=127
key=E5
lovel=85
offset=506
sample=6Horns_staccato_FF_E5_RR1.opus

<region>
hivel=127
key=F#2
lovel=85
offset=770
sample=6Horns_staccato_FF_F#2_RR1.opus

<region>
hivel=127
key=F#3
lovel=85
offset=721
sample=6Horns_staccato_FF_F#3_RR1.opus

<region>
hivel=127
key=F#4
lovel=85
offset=61
sample=6Horns_staccato_FF_F#4_RR1.opus

<region>
hivel=127
key=F2
lovel=85
offset=88
sample=6Horns_staccato_FF_F2_RR1.opus

<region>
hivel=127
key=F3
lovel=85
offset=388
sample=6Horns_staccato_FF_F3_RR1.opus

<region>
hivel=127
key=F4
lovel=85
offset=609
sample=6Horns_staccato_FF_F4_RR1.opus

<region>
hivel=127
key=F5
lovel=85
offset=207
sample=6Horns_staccato_FF_F5_RR1.opus

<region>
hivel=127
key=G#2
lovel=85
offset=130
sample=6Horns_staccato_FF_G#2_RR1.opus

<region>
hivel=127
key=G#3
lovel=85
offset=20
sample=6Horns_staccato_FF_G#3_RR1.opus

<region>
hivel=127
key=G#4
lovel=85
offset=333
sample=6Horns_staccato_FF_G#4_RR1.opus

<region>
hivel=127
key=G2
lovel=85
offset=917
sample=6Horns_staccato_FF_G2_RR1.opus

<region>
hivel=127
key=G3
lovel=85
offset=286
sample=6Horns_staccato_FF_G3_RR1.opus

<region>
hivel=127
key=G4
lovel=85
sample=6Horns_staccato_FF_G4_RR1.opus

<region>
hivel=84
key=A#2
lovel=43
offset=2156
sample=6Horns_staccato_MF_A#2_RR1.opus

<region>
hivel=84
key=A#3
lovel=43
offset=152
sample=6Horns_staccato_MF_A#3_RR1.opus

<region>
hivel=84
key=A2
lovel=43
offset=491
sample=6Horns_staccato_MF_A2_RR1.opus

<region>
hivel=84
key=A3
lovel=43
offset=1648
sample=6Horns_staccato_MF_A3_RR1.opus

<region>
hikey=a#4
hivel=84
lokey=a4
lovel=43
offset=1343
pitch_keycenter=a4
sample=6Horns_staccato_MF_A4_RR1.opus

<region>
hivel=84
key=B2
lovel=43
offset=497
sample=6Horns_staccato_MF_B2_RR1.opus

<region>
hivel=84
key=B3
lovel=43
offset=712
sample=6Horns_staccato_MF_B3_RR1.opus

<region>
hikey=C5
hivel=84
lokey=B4
lovel=43
pitch_keycenter=B4
sample=6Horns_staccato_MF_B4_RR1.opus

<region>
hivel=84
key=C#3
lovel=43
offset=771
sample=6Horns_staccato_MF_C#3_RR1.opus

<region>
hivel=84
key=C#4
lovel=43
sample=6Horns_staccato_MF_C#4_RR1.opus

<region>
hivel=84
key=C3
lovel=43
offset=753
sample=6Horns_staccato_MF_C3_RR1.opus

<region>
hivel=84
key=C4
lovel=43
offset=1169
sample=6Horns_staccato_MF_C4_RR1.opus

<region>
hivel=84
key=D#3
lovel=43
offset=478
sample=6Horns_staccato_MF_D#3_RR1.opus

<region>
hivel=84
key=D#4
lovel=43
offset=781
sample=6Horns_staccato_MF_D#4_RR1.opus

<region>
hivel=84
key=D#5
lovel=43
sample=6Horns_staccato_MF_D#5_RR1.opus

<region>
hivel=84
key=D3
lovel=43
offset=520
sample=6Horns_staccato_MF_D3_RR1.opus

<region>
hivel=84
key=D4
lovel=43
offset=848
sample=6Horns_staccato_MF_D4_RR1.opus

<region>
hikey=D5
hivel=84
lokey=C#5
lovel=43
pitch_keycenter=D5
sample=6Horns_staccato_MF_D5_RR1.opus

<region>
hivel=84
key=E3
lovel=43
offset=569
sample=6Horns_staccato_MF_E3_RR1.opus

<region>
hivel=84
key=E4
lovel=43
sample=6Horns_staccato_MF_E4_RR1.opus

<region>
hivel=84
key=E5
lovel=43
sample=6Horns_staccato_MF_E5_RR1.opus

<region>
hivel=84
key=F#2
lovel=43
offset=2413
sample=6Horns_staccato_MF_F#2_RR1.opus

<region>
hivel=84
key=F#3
lovel=43
offset=791
sample=6Horns_staccato_MF_F#3_RR1.opus

<region>
hivel=84
key=F#4
lovel=43
offset=281
sample=6Horns_staccato_MF_F#4_RR1.opus

<region>
hivel=84
key=F2
lovel=43
offset=597
sample=6Horns_staccato_MF_F2_RR1.opus

<region>
hivel=84
key=F3
lovel=43
offset=394
sample=6Horns_staccato_MF_F3_RR1.opus

<region>
hivel=84
key=F4
lovel=43
offset=256
sample=6Horns_staccato_MF_F4_RR1.opus

<region>
hivel=84
key=F5
lovel=43
offset=464
sample=6Horns_staccato_MF_F5_RR1.opus

<region>
hivel=84
key=G#2
lovel=43
offset=1282
sample=6Horns_staccato_MF_G#2_RR1.opus

<region>
hivel=84
key=G#3
lovel=43
offset=387
sample=6Horns_staccato_MF_G#3_RR1.opus

<region>
hivel=84
key=G#4
lovel=43
offset=112
sample=6Horns_staccato_MF_G#4_RR1.opus

<region>
hivel=84
key=G2
lovel=43
offset=492
sample=6Horns_staccato_MF_G2_RR1.opus

<region>
hivel=84
key=G3
lovel=43
offset=546
sample=6Horns_staccato_MF_G3_RR1.opus

<region>
hivel=84
key=G4
lovel=43
offset=1783
sample=6Horns_staccato_MF_G4_RR1.opus

<region>
hivel=42
key=A#2
lovel=0
offset=411
sample=6Horns_staccato_PP_A#2_RR1.opus

<region>
hivel=42
key=A#3
lovel=0
offset=164
sample=6Horns_staccato_PP_A#3_RR1.opus

<region>
hivel=42
key=A#4
lovel=0
offset=16
sample=6Horns_staccato_PP_A#4_RR1.opus

<region>
hivel=42
key=A2
lovel=0
offset=2379
sample=6Horns_staccato_PP_A2_RR1.opus

<region>
hivel=42
key=A3
lovel=0
offset=186
sample=6Horns_staccato_PP_A3_RR1.opus

<region>
hivel=42
key=A4
lovel=0
offset=165
sample=6Horns_staccato_PP_A4_RR1.opus

<region>
hivel=42
key=B2
lovel=0
offset=695
sample=6Horns_staccato_PP_B2_RR1.opus

<region>
hivel=42
key=B3
lovel=0
offset=762
sample=6Horns_staccato_PP_B3_RR1.opus

<region>
hivel=42
key=B4
lovel=0
sample=6Horns_staccato_PP_B4_RR1.opus

<region>
hivel=42
key=C#3
lovel=0
offset=561
sample=6Horns_staccato_PP_C#3_RR1.opus

<region>
hivel=42
key=C#4
lovel=0
offset=569
sample=6Horns_staccato_PP_C#4_RR1.opus

<region>
hivel=42
key=C#5
lovel=0
offset=889
sample=6Horns_staccato_PP_C#5_RR1.opus

<region>
hivel=42
key=C3
lovel=0
offset=1664
sample=6Horns_staccato_PP_C3_RR1.opus

<region>
hivel=42
key=C4
lovel=0
offset=2391
sample=6Horns_staccato_PP_C4_RR1.opus

<region>
hivel=42
key=C5
lovel=0
offset=245
sample=6Horns_staccato_PP_C5_RR1.opus

<region>
hivel=42
key=D#3
lovel=0
offset=481
sample=6Horns_staccato_PP_D#3_RR1.opus

<region>
hivel=42
key=D#4
lovel=0
sample=6Horns_staccato_PP_D#4_RR1.opus

<region>
hivel=42
key=D#5
lovel=0
offset=468
sample=6Horns_staccato_PP_D#5_RR1.opus

<region>
hivel=42
key=D3
lovel=0
offset=518
sample=6Horns_staccato_PP_D3_RR1.opus

<region>
hivel=42
key=D4
lovel=0
offset=328
sample=6Horns_staccato_PP_D4_RR1.opus

<region>
hivel=42
key=D5
lovel=0
sample=6Horns_staccato_PP_D5_RR1.opus

<region>
hivel=42
key=E3
lovel=0
sample=6Horns_staccato_PP_E3_RR1.opus

<region>
hivel=42
key=E4
lovel=0
offset=1444
sample=6Horns_staccato_PP_E4_RR1.opus

<region>
hivel=42
key=E5
lovel=0
sample=6Horns_staccato_PP_E5_RR1.opus

<region>
hivel=42
key=F#2
lovel=0
offset=3084
sample=6Horns_staccato_PP_F#2_RR1.opus

<region>
hivel=42
key=F#3
lovel=0
offset=1137
sample=6Horns_staccato_PP_F#3_RR1.opus

<region>
hivel=42
key=F#4
lovel=0
offset=502
sample=6Horns_staccato_PP_F#4_RR1.opus

<region>
hivel=42
key=F2
lovel=0
offset=2754
sample=6Horns_staccato_PP_F2_RR1.opus

<region>
hivel=42
key=F3
lovel=0
offset=372
sample=6Horns_staccato_PP_F3_RR1.opus

<region>
hivel=42
key=F4
lovel=0
sample=6Horns_staccato_PP_F4_RR1.opus

<region>
hivel=42
key=F5
lovel=0
offset=596
sample=6Horns_staccato_PP_F5_RR1.opus

<region>
hivel=42
key=G#2
lovel=0
offset=3137
sample=6Horns_staccato_PP_G#2_RR1.opus

<region>
hivel=42
key=G#3
lovel=0
offset=737
sample=6Horns_staccato_PP_G#3_RR1.opus

<region>
hivel=42
key=G#4
lovel=0
offset=1415
sample=6Horns_staccato_PP_G#4_RR1.opus

<region>
hivel=42
key=G2
lovel=0
offset=3841
sample=6Horns_staccato_PP_G2_RR1.opus

<region>
hivel=42
key=G3
lovel=0
offset=1637
sample=6Horns_staccato_PP_G3_RR1.opus

<region>
hivel=42
key=G4
lovel=0
offset=1141
sample=6Horns_staccato_PP_G4_RR1.opus

<group>
group_label=RR2
seq_length=4
seq_position=2

<region>
hivel=127
key=A#2
lovel=85
offset=403
sample=6Horns_staccato_FF_A#2_RR2.opus

<region>
hivel=127
key=A#3
lovel=85
offset=167
sample=6Horns_staccato_FF_A#3_RR2.opus

<region>
hivel=127
key=A#4
lovel=85
sample=6Horns_staccato_FF_A#4_RR2.opus

<region>
hivel=127
key=A2
lovel=85
offset=840
sample=6Horns_staccato_FF_A2_RR2.opus

<region>
hivel=127
key=A3
lovel=85
offset=241
sample=6Horns_staccato_FF_A3_RR2.opus

<region>
hivel=127
key=A4
lovel=85
offset=77
sample=6Horns_staccato_FF_A4_RR2.opus

<region>
hivel=127
key=B2
lovel=85
offset=13694
sample=6Horns_staccato_FF_B2_RR2.opus

<region>
hivel=127
key=B3
lovel=85
offset=516
sample=6Horns_staccato_FF_B3_RR2.opus

<region>
hivel=127
key=B4
lovel=85
offset=11098
sample=6Horns_staccato_FF_B4_RR2.opus

<region>
hivel=127
key=C#3
lovel=85
offset=905
sample=6Horns_staccato_FF_C#3_RR2.opus

<region>
hivel=127
key=C#4
lovel=85
offset=397
sample=6Horns_staccato_FF_C#4_RR2.opus

<region>
hivel=127
key=C#5
lovel=85
sample=6Horns_staccato_FF_C#5_RR2.opus

<region>
hivel=127
key=C3
lovel=85
offset=1064
sample=6Horns_staccato_FF_C3_RR2.opus

<region>
hivel=127
key=C4
lovel=85
offset=310
sample=6Horns_staccato_FF_C4_RR2.opus

<region>
hivel=127
key=C5
lovel=85
sample=6Horns_staccato_FF_C5_RR2.opus

<region>
hivel=127
key=D#3
lovel=85
offset=813
sample=6Horns_staccato_FF_D#3_RR2.opus

<region>
hivel=127
key=D#4
lovel=85
offset=420
sample=6Horns_staccato_FF_D#4_RR2.opus

<region>
hivel=127
key=D#5
lovel=85
offset=93
sample=6Horns_staccato_FF_D#5_RR2.opus

<region>
hivel=127
key=D3
lovel=85
offset=519
sample=6Horns_staccato_FF_D3_RR2.opus

<region>
hivel=127
key=D4
lovel=85
offset=964
sample=6Horns_staccato_FF_D4_RR2.opus

<region>
hivel=127
key=D5
lovel=85
offset=541
sample=6Horns_staccato_FF_D5_RR2.opus

<region>
hivel=127
key=E3
lovel=85
offset=1855
sample=6Horns_staccato_FF_E3_RR2.opus

<region>
hivel=127
key=E4
lovel=85
offset=818
sample=6Horns_staccato_FF_E4_RR2.opus

<region>
hivel=127
key=E5
lovel=85
offset=303
sample=6Horns_staccato_FF_E5_RR2.opus

<region>
hivel=127
key=F#2
lovel=85
offset=1703
sample=6Horns_staccato_FF_F#2_RR2.opus

<region>
hivel=127
key=F#3
lovel=85
offset=413
sample=6Horns_staccato_FF_F#3_RR2.opus

<region>
hivel=127
key=F#4
lovel=85
offset=1200
sample=6Horns_staccato_FF_F#4_RR2.opus

<region>
hivel=127
key=F2
lovel=85
offset=1195
sample=6Horns_staccato_FF_F2_RR2.opus

<region>
hivel=127
key=F3
lovel=85
offset=1251
sample=6Horns_staccato_FF_F3_RR2.opus

<region>
hivel=127
key=F4
lovel=85
offset=617
sample=6Horns_staccato_FF_F4_RR2.opus

<region>
hivel=127
key=F5
lovel=85
offset=1774
sample=6Horns_staccato_FF_F5_RR2.opus

<region>
hivel=127
key=G#2
lovel=85
offset=631
sample=6Horns_staccato_FF_G#2_RR2.opus

<region>
hivel=127
key=G#3
lovel=85
offset=1615
sample=6Horns_staccato_FF_G#3_RR2.opus

<region>
hivel=127
key=G#4
lovel=85
sample=6Horns_staccato_FF_G#4_RR2.opus

<region>
hivel=127
key=G2
lovel=85
offset=635
sample=6Horns_staccato_FF_G2_RR2.opus

<region>
hivel=127
key=G3
lovel=85
offset=796
sample=6Horns_staccato_FF_G3_RR2.opus

<region>
hivel=127
key=G4
lovel=85
sample=6Horns_staccato_FF_G4_RR2.opus

<region>
hivel=84
key=A#2
lovel=43
offset=268
sample=6Horns_staccato_MF_A#2_RR2.opus

<region>
hivel=84
key=A#3
lovel=43
offset=1526
sample=6Horns_staccato_MF_A#3_RR2.opus

<region>
hivel=84
key=A2
lovel=43
offset=818
sample=6Horns_staccato_MF_A2_RR2.opus

<region>
hivel=84
key=A3
lovel=43
offset=632
sample=6Horns_staccato_MF_A3_RR2.opus

<region>
hikey=a#4
hivel=84
lokey=a4
lovel=43
offset=15837
pitch_keycenter=a4
sample=6Horns_staccato_MF_A4_RR2.opus

<region>
hivel=84
key=B2
lovel=43
offset=395
sample=6Horns_staccato_MF_B2_RR2.opus

<region>
hivel=84
key=B3
lovel=43
offset=854
sample=6Horns_staccato_MF_B3_RR2.opus

<region>
hivel=84
key=B4
lovel=43
offset=911
sample=6Horns_staccato_MF_B4_RR2.opus

<region>
hivel=84
key=C#3
lovel=43
offset=602
sample=6Horns_staccato_MF_C#3_RR2.opus

<region>
hivel=84
key=C#4
lovel=43
offset=529
sample=6Horns_staccato_MF_C#4_RR2.opus

<region>
hivel=84
key=C#5
lovel=43
offset=361
sample=6Horns_staccato_MF_C#5_RR2.opus

<region>
hivel=84
key=C3
lovel=43
offset=657
sample=6Horns_staccato_MF_C3_RR2.opus

<region>
hivel=84
key=C4
lovel=43
offset=14356
sample=6Horns_staccato_MF_C4_RR2.opus

<region>
hivel=84
key=C5
lovel=43
sample=6Horns_staccato_MF_C5_RR2.opus

<region>
hivel=84
key=D#3
lovel=43
offset=461
sample=6Horns_staccato_MF_D#3_RR2.opus

<region>
hivel=84
key=D#4
lovel=43
offset=303
sample=6Horns_staccato_MF_D#4_RR2.opus

<region>
hikey=E5
hivel=84
lokey=D#5
lovel=43
offset=14492
pitch_keycenter=D#5
sample=6Horns_staccato_MF_D#5_RR2.opus

<region>
hivel=84
key=D3
lovel=43
offset=517
sample=6Horns_staccato_MF_D3_RR2.opus

<region>
hivel=84
key=D4
lovel=43
offset=826
sample=6Horns_staccato_MF_D4_RR2.opus

<region>
hivel=84
key=D5
lovel=43
offset=429
sample=6Horns_staccato_MF_D5_RR2.opus

<region>
hivel=84
key=E3
lovel=43
offset=677
sample=6Horns_staccato_MF_E3_RR2.opus

<region>
hivel=84
key=E4
lovel=43
offset=784
sample=6Horns_staccato_MF_E4_RR2.opus

<region>
hivel=84
key=F#2
lovel=43
offset=1613
sample=6Horns_staccato_MF_F#2_RR2.opus

<region>
hivel=84
key=F#3
lovel=43
offset=570
sample=6Horns_staccato_MF_F#3_RR2.opus

<region>
hivel=84
key=F#4
lovel=43
offset=1389
sample=6Horns_staccato_MF_F#4_RR2.opus

<region>
hivel=84
key=F2
lovel=43
offset=14555
sample=6Horns_staccato_MF_F2_RR2.opus

<region>
hivel=84
key=F3
lovel=43
offset=664
sample=6Horns_staccato_MF_F3_RR2.opus

<region>
hivel=84
key=F4
lovel=43
offset=1310
sample=6Horns_staccato_MF_F4_RR2.opus

<region>
hivel=84
key=F5
lovel=43
offset=418
sample=6Horns_staccato_MF_F5_RR2.opus

<region>
hivel=84
key=G#2
lovel=43
offset=915
sample=6Horns_staccato_MF_G#2_RR2.opus

<region>
hivel=84
key=G#3
lovel=43
sample=6Horns_staccato_MF_G#3_RR2.opus

<region>
hivel=84
key=G#4
lovel=43
sample=6Horns_staccato_MF_G#4_RR2.opus

<region>
hivel=84
key=G2
lovel=43
offset=514
sample=6Horns_staccato_MF_G2_RR2.opus

<region>
hivel=84
key=G3
lovel=43
offset=409
sample=6Horns_staccato_MF_G3_RR2.opus

<region>
hivel=84
key=G4
lovel=43
offset=624
sample=6Horns_staccato_MF_G4_RR2.opus

<region>
hivel=42
key=A#2
lovel=0
offset=12763
sample=6Horns_staccato_PP_A#2_RR2.opus

<region>
hivel=42
key=A#3
lovel=0
offset=1195
sample=6Horns_staccato_PP_A#3_RR2.opus

<region>
hivel=42
key=A#4
lovel=0
offset=12730
sample=6Horns_staccato_PP_A#4_RR2.opus

<region>
hivel=42
key=A2
lovel=0
offset=1280
sample=6Horns_staccato_PP_A2_RR2.opus

<region>
hivel=42
key=A3
lovel=0
offset=968
sample=6Horns_staccato_PP_A3_RR2.opus

<region>
hivel=42
key=A4
lovel=0
sample=6Horns_staccato_PP_A4_RR2.opus

<region>
hivel=42
key=B2
lovel=0
offset=1066
sample=6Horns_staccato_PP_B2_RR2.opus

<region>
hivel=42
key=B3
lovel=0
offset=13228
sample=6Horns_staccato_PP_B3_RR2.opus

<region>
hivel=42
key=B4
lovel=0
sample=6Horns_staccato_PP_B4_RR2.opus

<region>
hivel=42
key=C#3
lovel=0
offset=1398
sample=6Horns_staccato_PP_C#3_RR2.opus

<region>
hivel=42
key=C#4
lovel=0
offset=385
sample=6Horns_staccato_PP_C#4_RR2.opus

<region>
hivel=42
key=C#5
lovel=0
sample=6Horns_staccato_PP_C#5_RR2.opus

<region>
hivel=42
key=C3
lovel=0
offset=956
sample=6Horns_staccato_PP_C3_RR2.opus

<region>
hivel=42
key=C4
lovel=0
offset=2271
sample=6Horns_staccato_PP_C4_RR2.opus

<region>
hivel=42
key=C5
lovel=0
sample=6Horns_staccato_PP_C5_RR2.opus

<region>
hivel=42
key=D#3
lovel=0
offset=1008
sample=6Horns_staccato_PP_D#3_RR2.opus

<region>
hivel=42
key=D#4
lovel=0
offset=1158
sample=6Horns_staccato_PP_D#4_RR2.opus

<region>
hivel=42
key=D#5
lovel=0
offset=164
sample=6Horns_staccato_PP_D#5_RR2.opus

<region>
hivel=42
key=D3
lovel=0
offset=935
sample=6Horns_staccato_PP_D3_RR2.opus

<region>
hivel=42
key=D4
lovel=0
sample=6Horns_staccato_PP_D4_RR2.opus

<region>
hivel=42
key=D5
lovel=0
sample=6Horns_staccato_PP_D5_RR2.opus

<region>
hivel=42
key=E3
lovel=0
offset=2518
sample=6Horns_staccato_PP_E3_RR2.opus

<region>
hivel=42
key=E4
lovel=0
offset=412
sample=6Horns_staccato_PP_E4_RR2.opus

<region>
hivel=42
key=E5
lovel=0
sample=6Horns_staccato_PP_E5_RR2.opus

<region>
hivel=42
key=F#2
lovel=0
offset=2124
sample=6Horns_staccato_PP_F#2_RR2.opus

<region>
hivel=42
key=F#3
lovel=0
offset=14227
sample=6Horns_staccato_PP_F#3_RR2.opus

<region>
hivel=42
key=F#4
lovel=0
offset=14230
sample=6Horns_staccato_PP_F#4_RR2.opus

<region>
hivel=42
key=F2
lovel=0
offset=1502
sample=6Horns_staccato_PP_F2_RR2.opus

<region>
hivel=42
key=F3
lovel=0
offset=380
sample=6Horns_staccato_PP_F3_RR2.opus

<region>
hivel=42
key=F4
lovel=0
offset=1036
sample=6Horns_staccato_PP_F4_RR2.opus

<region>
hivel=42
key=F5
lovel=0
offset=81
sample=6Horns_staccato_PP_F5_RR2.opus

<region>
hivel=42
key=G#2
lovel=0
offset=1362
sample=6Horns_staccato_PP_G#2_RR2.opus

<region>
hivel=42
key=G#3
lovel=0
offset=848
sample=6Horns_staccato_PP_G#3_RR2.opus

<region>
hivel=42
key=G#4
lovel=0
offset=473
sample=6Horns_staccato_PP_G#4_RR2.opus

<region>
hivel=42
key=G2
lovel=0
offset=12940
sample=6Horns_staccato_PP_G2_RR2.opus

<region>
hivel=42
key=G3
lovel=0
offset=546
sample=6Horns_staccato_PP_G3_RR2.opus

<region>
hivel=42
key=G4
lovel=0
sample=6Horns_staccato_PP_G4_RR2.opus

<group>
group_label=RR3
seq_length=4
seq_position=3

<region>
hivel=127
key=A#2
lovel=85
offset=1935
sample=6Horns_staccato_FF_A#2_RR3.opus

<region>
hivel=127
key=A#3
lovel=85
sample=6Horns_staccato_FF_A#3_RR3.opus

<region>
hivel=127
key=A#4
lovel=85
offset=344
sample=6Horns_staccato_FF_A#4_RR3.opus

<region>
hivel=127
key=A2
lovel=85
offset=1301
sample=6Horns_staccato_FF_A2_RR3.opus

<region>
hivel=127
key=A3
lovel=85
offset=90
sample=6Horns_staccato_FF_A3_RR3.opus

<region>
hivel=127
key=A4
lovel=85
offset=1423
sample=6Horns_staccato_FF_A4_RR3.opus

<region>
hivel=127
key=B2
lovel=85
offset=2228
sample=6Horns_staccato_FF_B2_RR3.opus

<region>
hivel=127
key=B3
lovel=85
offset=779
sample=6Horns_staccato_FF_B3_RR3.opus

<region>
hivel=127
key=B4
lovel=85
sample=6Horns_staccato_FF_B4_RR3.opus

<region>
hivel=127
key=C#3
lovel=85
offset=1665
sample=6Horns_staccato_FF_C#3_RR3.opus

<region>
hivel=127
key=C#4
lovel=85
offset=528
sample=6Horns_staccato_FF_C#4_RR3.opus

<region>
hikey=D5
hivel=127
lokey=C#5
lovel=85
offset=151
pitch_keycenter=C#5
sample=6Horns_staccato_FF_C#5_RR3.opus

<region>
hivel=127
key=C3
lovel=85
offset=896
sample=6Horns_staccato_FF_C3_RR3.opus

<region>
hivel=127
key=C4
lovel=85
offset=432
sample=6Horns_staccato_FF_C4_RR3.opus

<region>
hivel=127
key=C5
lovel=85
offset=213
sample=6Horns_staccato_FF_C5_RR3.opus

<region>
hivel=127
key=D#3
lovel=85
offset=481
sample=6Horns_staccato_FF_D#3_RR3.opus

<region>
hivel=127
key=D#4
lovel=85
offset=532
sample=6Horns_staccato_FF_D#4_RR3.opus

<region>
hivel=127
key=D#5
lovel=85
offset=601
sample=6Horns_staccato_FF_D#5_RR3.opus

<region>
hivel=127
key=D3
lovel=85
offset=492
sample=6Horns_staccato_FF_D3_RR3.opus

<region>
hivel=127
key=D4
lovel=85
offset=666
sample=6Horns_staccato_FF_D4_RR3.opus

<region>
hivel=127
key=E3
lovel=85
offset=238
sample=6Horns_staccato_FF_E3_RR3.opus

<region>
hivel=127
key=E4
lovel=85
offset=2297
sample=6Horns_staccato_FF_E4_RR3.opus

<region>
hivel=127
key=E5
lovel=85
sample=6Horns_staccato_FF_E5_RR3.opus

<region>
hivel=127
key=F#2
lovel=85
offset=1213
sample=6Horns_staccato_FF_F#2_RR3.opus

<region>
hivel=127
key=F#3
lovel=85
offset=409
sample=6Horns_staccato_FF_F#3_RR3.opus

<region>
hivel=127
key=F#4
lovel=85
offset=1349
sample=6Horns_staccato_FF_F#4_RR3.opus

<region>
hivel=127
key=F2
lovel=85
offset=627
sample=6Horns_staccato_FF_F2_RR3.opus

<region>
hivel=127
key=F3
lovel=85
offset=1558
sample=6Horns_staccato_FF_F3_RR3.opus

<region>
hivel=127
key=F4
lovel=85
offset=10391
sample=6Horns_staccato_FF_F4_RR3.opus

<region>
hivel=127
key=F5
lovel=85
sample=6Horns_staccato_FF_F5_RR3.opus

<region>
hivel=127
key=G#2
lovel=85
offset=361
sample=6Horns_staccato_FF_G#2_RR3.opus

<region>
hivel=127
key=G#3
lovel=85
sample=6Horns_staccato_FF_G#3_RR3.opus

<region>
hivel=127
key=G#4
lovel=85
offset=239
sample=6Horns_staccato_FF_G#4_RR3.opus

<region>
hivel=127
key=G2
lovel=85
offset=1029
sample=6Horns_staccato_FF_G2_RR3.opus

<region>
hivel=127
key=G3
lovel=85
offset=624
sample=6Horns_staccato_FF_G3_RR3.opus

<region>
hivel=127
key=G4
lovel=85
sample=6Horns_staccato_FF_G4_RR3.opus

<region>
hivel=84
key=A#2
lovel=43
offset=334
sample=6Horns_staccato_MF_A#2_RR3.opus

<region>
hivel=84
key=A#3
lovel=43
offset=68
sample=6Horns_staccato_MF_A#3_RR3.opus

<region>
hivel=84
key=A2
lovel=43
offset=391
sample=6Horns_staccato_MF_A2_RR3.opus

<region>
hivel=84
key=A3
lovel=43
offset=737
sample=6Horns_staccato_MF_A3_RR3.opus

<region>
hikey=a#4
hivel=84
lokey=a4
lovel=43
offset=13795
pitch_keycenter=a4
sample=6Horns_staccato_MF_A4_RR3.opus

<region>
hivel=84
key=B2
lovel=43
offset=357
sample=6Horns_staccato_MF_B2_RR3.opus

<region>
hivel=84
key=B3
lovel=43
offset=1261
sample=6Horns_staccato_MF_B3_RR3.opus

<region>
hivel=84
key=B4
lovel=43
offset=13441
sample=6Horns_staccato_MF_B4_RR3.opus

<region>
hivel=84
key=C#3
lovel=43
sample=6Horns_staccato_MF_C#3_RR3.opus

<region>
hivel=84
key=C#4
lovel=43
offset=62
sample=6Horns_staccato_MF_C#4_RR3.opus

<region>
hivel=84
key=C#5
lovel=43
offset=545
sample=6Horns_staccato_MF_C#5_RR3.opus

<region>
hivel=84
key=C3
lovel=43
offset=649
sample=6Horns_staccato_MF_C3_RR3.opus

<region>
hivel=84
key=C4
lovel=43
offset=14510
sample=6Horns_staccato_MF_C4_RR3.opus

<region>
hivel=84
key=C5
lovel=43
offset=180
sample=6Horns_staccato_MF_C5_RR3.opus

<region>
hivel=84
key=D#3
lovel=43
offset=426
sample=6Horns_staccato_MF_D#3_RR3.opus

<region>
hivel=84
key=D#4
lovel=43
sample=6Horns_staccato_MF_D#4_RR3.opus

<region>
hivel=84
key=D#5
lovel=43
sample=6Horns_staccato_MF_D#5_RR3.opus

<region>
hivel=84
key=D3
lovel=43
offset=524
sample=6Horns_staccato_MF_D3_RR3.opus

<region>
hivel=84
key=D4
lovel=43
offset=1775
sample=6Horns_staccato_MF_D4_RR3.opus

<region>
hivel=84
key=D5
lovel=43
sample=6Horns_staccato_MF_D5_RR3.opus

<region>
hivel=84
key=E3
lovel=43
offset=97
sample=6Horns_staccato_MF_E3_RR3.opus

<region>
hivel=84
key=E4
lovel=43
offset=545
sample=6Horns_staccato_MF_E4_RR3.opus

<region>
hivel=84
key=E5
lovel=43
offset=212
sample=6Horns_staccato_MF_E5_RR3.opus

<region>
hivel=84
key=F#2
lovel=43
offset=1983
sample=6Horns_staccato_MF_F#2_RR3.opus

<region>
hivel=84
key=F#3
lovel=43
offset=12857
sample=6Horns_staccato_MF_F#3_RR3.opus

<region>
hivel=84
key=F#4
lovel=43
offset=549
sample=6Horns_staccato_MF_F#4_RR3.opus

<region>
hivel=84
key=F2
lovel=43
offset=12240
sample=6Horns_staccato_MF_F2_RR3.opus

<region>
hivel=84
key=F3
lovel=43
offset=13228
sample=6Horns_staccato_MF_F3_RR3.opus

<region>
hivel=84
key=F4
lovel=43
offset=297
sample=6Horns_staccato_MF_F4_RR3.opus

<region>
hivel=84
key=F5
lovel=43
offset=1791
sample=6Horns_staccato_MF_F5_RR3.opus

<region>
hivel=84
key=G#2
lovel=43
offset=445
sample=6Horns_staccato_MF_G#2_RR3.opus

<region>
hivel=84
key=G#3
lovel=43
offset=830
sample=6Horns_staccato_MF_G#3_RR3.opus

<region>
hivel=84
key=G#4
lovel=43
sample=6Horns_staccato_MF_G#4_RR3.opus

<region>
hivel=84
key=G2
lovel=43
offset=526
sample=6Horns_staccato_MF_G2_RR3.opus

<region>
hivel=84
key=G3
lovel=43
offset=1038
sample=6Horns_staccato_MF_G3_RR3.opus

<region>
hivel=84
key=G4
lovel=43
offset=273
sample=6Horns_staccato_MF_G4_RR3.opus

<region>
hivel=42
key=A#2
lovel=0
offset=1222
sample=6Horns_staccato_PP_A#2_RR3.opus

<region>
hivel=42
key=A#3
lovel=0
offset=368
sample=6Horns_staccato_PP_A#3_RR3.opus

<region>
hivel=42
key=A#4
lovel=0
sample=6Horns_staccato_PP_A#4_RR3.opus

<region>
hivel=42
key=A2
lovel=0
offset=1138
sample=6Horns_staccato_PP_A2_RR3.opus

<region>
hivel=42
key=A3
lovel=0
offset=980
sample=6Horns_staccato_PP_A3_RR3.opus

<region>
hivel=42
key=A4
lovel=0
sample=6Horns_staccato_PP_A4_RR3.opus

<region>
hivel=42
key=B2
lovel=0
offset=673
sample=6Horns_staccato_PP_B2_RR3.opus

<region>
hivel=42
key=B3
lovel=0
offset=839
sample=6Horns_staccato_PP_B3_RR3.opus

<region>
hivel=42
key=B4
lovel=0
sample=6Horns_staccato_PP_B4_RR3.opus

<region>
hivel=42
key=C#3
lovel=0
offset=11650
sample=6Horns_staccato_PP_C#3_RR3.opus

<region>
hivel=42
key=C#4
lovel=0
offset=1157
sample=6Horns_staccato_PP_C#4_RR3.opus

<region>
hivel=42
key=C#5
lovel=0
offset=83
sample=6Horns_staccato_PP_C#5_RR3.opus

<region>
hivel=42
key=C3
lovel=0
offset=1653
sample=6Horns_staccato_PP_C3_RR3.opus

<region>
hivel=42
key=C4
lovel=0
offset=1212
sample=6Horns_staccato_PP_C4_RR3.opus

<region>
hivel=42
key=C5
lovel=0
sample=6Horns_staccato_PP_C5_RR3.opus

<region>
hivel=42
key=D#3
lovel=0
offset=1355
sample=6Horns_staccato_PP_D#3_RR3.opus

<region>
hivel=42
key=D#4
lovel=0
sample=6Horns_staccato_PP_D#4_RR3.opus

<region>
hivel=42
key=D#5
lovel=0
sample=6Horns_staccato_PP_D#5_RR3.opus

<region>
hivel=42
key=D3
lovel=0
offset=1744
sample=6Horns_staccato_PP_D3_RR3.opus

<region>
hivel=42
key=D4
lovel=0
offset=480
sample=6Horns_staccato_PP_D4_RR3.opus

<region>
hivel=42
key=D5
lovel=0
offset=161
sample=6Horns_staccato_PP_D5_RR3.opus

<region>
hivel=42
key=E3
lovel=0
offset=1414
sample=6Horns_staccato_PP_E3_RR3.opus

<region>
hivel=42
key=E4
lovel=0
offset=846
sample=6Horns_staccato_PP_E4_RR3.opus

<region>
hivel=42
key=E5
lovel=0
sample=6Horns_staccato_PP_E5_RR3.opus

<region>
hivel=42
key=F#2
lovel=0
offset=5046
sample=6Horns_staccato_PP_F#2_RR3.opus

<region>
hivel=42
key=F#3
lovel=0
offset=1028
sample=6Horns_staccato_PP_F#3_RR3.opus

<region>
hivel=42
key=F#4
lovel=0
offset=1085
sample=6Horns_staccato_PP_F#4_RR3.opus

<region>
hivel=42
key=F2
lovel=0
offset=14671
sample=6Horns_staccato_PP_F2_RR3.opus

<region>
hivel=42
key=F3
lovel=0
offset=817
sample=6Horns_staccato_PP_F3_RR3.opus

<region>
hivel=42
key=F4
lovel=0
offset=153
sample=6Horns_staccato_PP_F4_RR3.opus

<region>
hivel=42
key=F5
lovel=0
offset=13827
sample=6Horns_staccato_PP_F5_RR3.opus

<region>
hivel=42
key=G#2
lovel=0
offset=1626
sample=6Horns_staccato_PP_G#2_RR3.opus

<region>
hivel=42
key=G#3
lovel=0
sample=6Horns_staccato_PP_G#3_RR3.opus

<region>
hivel=42
key=G#4
lovel=0
offset=1175
sample=6Horns_staccato_PP_G#4_RR3.opus

<region>
hivel=42
key=G2
lovel=0
offset=12163
sample=6Horns_staccato_PP_G2_RR3.opus

<region>
hivel=42
key=G3
lovel=0
offset=308
sample=6Horns_staccato_PP_G3_RR3.opus

<region>
hivel=42
key=G4
lovel=0
offset=122
sample=6Horns_staccato_PP_G4_RR3.opus

<group>
group_label=RR4
seq_length=4
seq_position=4

<region>
hivel=127
key=A#2
lovel=85
offset=341
sample=6Horns_staccato_FF_A#2_RR4.opus

<region>
hivel=127
key=A#3
lovel=85
offset=499
sample=6Horns_staccato_FF_A#3_RR4.opus

<region>
hivel=127
key=A#4
lovel=85
sample=6Horns_staccato_FF_A#4_RR4.opus

<region>
hivel=127
key=A2
lovel=85
offset=1571
sample=6Horns_staccato_FF_A2_RR4.opus

<region>
hivel=127
key=A3
lovel=85
offset=1231
sample=6Horns_staccato_FF_A3_RR4.opus

<region>
hivel=127
key=A4
lovel=85
offset=185
sample=6Horns_staccato_FF_A4_RR4.opus

<region>
hivel=127
key=B2
lovel=85
offset=310
sample=6Horns_staccato_FF_B2_RR4.opus

<region>
hivel=127
key=B3
lovel=85
offset=1427
sample=6Horns_staccato_FF_B3_RR4.opus

<region>
hivel=127
key=B4
lovel=85
offset=1335
sample=6Horns_staccato_FF_B4_RR4.opus

<region>
hivel=127
key=C#3
lovel=85
offset=2270
sample=6Horns_staccato_FF_C#3_RR4.opus

<region>
hivel=127
key=C#4
lovel=85
offset=754
sample=6Horns_staccato_FF_C#4_RR4.opus

<region>
hikey=D5
hivel=127
lokey=C#5
lovel=85
offset=924
pitch_keycenter=C#5
sample=6Horns_staccato_FF_C#5_RR4.opus

<region>
hivel=127
key=C3
lovel=85
offset=1043
sample=6Horns_staccato_FF_C3_RR4.opus

<region>
hivel=127
key=C4
lovel=85
offset=722
sample=6Horns_staccato_FF_C4_RR4.opus

<region>
hivel=127
key=C5
lovel=85
offset=252
sample=6Horns_staccato_FF_C5_RR4.opus

<region>
hivel=127
key=D#3
lovel=85
offset=929
sample=6Horns_staccato_FF_D#3_RR4.opus

<region>
hivel=127
key=D#4
lovel=85
offset=147
sample=6Horns_staccato_FF_D#4_RR4.opus

<region>
hivel=127
key=D#5
lovel=85
offset=203
sample=6Horns_staccato_FF_D#5_RR4.opus

<region>
hivel=127
key=D3
lovel=85
offset=489
sample=6Horns_staccato_FF_D3_RR4.opus

<region>
hivel=127
key=D4
lovel=85
offset=669
sample=6Horns_staccato_FF_D4_RR4.opus

<region>
hivel=127
key=E3
lovel=85
offset=146
sample=6Horns_staccato_FF_E3_RR4.opus

<region>
hivel=127
key=E4
lovel=85
offset=227
sample=6Horns_staccato_FF_E4_RR4.opus

<region>
hivel=127
key=E5
lovel=85
offset=242
sample=6Horns_staccato_FF_E5_RR4.opus

<region>
hivel=127
key=F#2
lovel=85
offset=2338
sample=6Horns_staccato_FF_F#2_RR4.opus

<region>
hivel=127
key=F#3
lovel=85
offset=648
sample=6Horns_staccato_FF_F#3_RR4.opus

<region>
hivel=127
key=F#4
lovel=85
offset=1179
sample=6Horns_staccato_FF_F#4_RR4.opus

<region>
hivel=127
key=F2
lovel=85
offset=593
sample=6Horns_staccato_FF_F2_RR4.opus

<region>
hivel=127
key=F3
lovel=85
offset=965
sample=6Horns_staccato_FF_F3_RR4.opus

<region>
hivel=127
key=F4
lovel=85
offset=1517
sample=6Horns_staccato_FF_F4_RR4.opus

<region>
hivel=127
key=F5
lovel=85
offset=189
sample=6Horns_staccato_FF_F5_RR4.opus

<region>
hivel=127
key=G#2
lovel=85
offset=1463
sample=6Horns_staccato_FF_G#2_RR4.opus

<region>
hivel=127
key=G#3
lovel=85
offset=1231
sample=6Horns_staccato_FF_G#3_RR4.opus

<region>
hivel=127
key=G#4
lovel=85
offset=353
sample=6Horns_staccato_FF_G#4_RR4.opus

<region>
hivel=127
key=G2
lovel=85
offset=501
sample=6Horns_staccato_FF_G2_RR4.opus

<region>
hivel=127
key=G3
lovel=85
offset=394
sample=6Horns_staccato_FF_G3_RR4.opus

<region>
hivel=127
key=G4
lovel=85
sample=6Horns_staccato_FF_G4_RR4.opus

<region>
hivel=84
key=A#2
lovel=43
offset=330
sample=6Horns_staccato_MF_A#2_RR4.opus

<region>
hivel=84
key=A#3
lovel=43
offset=12431
sample=6Horns_staccato_MF_A#3_RR4.opus

<region>
hivel=84
key=A2
lovel=43
offset=878
sample=6Horns_staccato_MF_A2_RR4.opus

<region>
hivel=84
key=A3
lovel=43
offset=1698
sample=6Horns_staccato_MF_A3_RR4.opus

<region>
hikey=a#4
hivel=84
lokey=a4
lovel=43
pitch_keycenter=a4
sample=6Horns_staccato_MF_A4_RR4.opus

<region>
hivel=84
key=B2
lovel=43
offset=1038
sample=6Horns_staccato_MF_B2_RR4.opus

<region>
hivel=84
key=B3
lovel=43
offset=662
sample=6Horns_staccato_MF_B3_RR4.opus

<region>
hivel=84
key=B4
lovel=43
sample=6Horns_staccato_MF_B4_RR4.opus

<region>
hivel=84
key=C#3
lovel=43
sample=6Horns_staccato_MF_C#3_RR4.opus

<region>
hivel=84
key=C#4
lovel=43
offset=756
sample=6Horns_staccato_MF_C#4_RR4.opus

<region>
hivel=84
key=C#5
lovel=43
offset=58
sample=6Horns_staccato_MF_C#5_RR4.opus

<region>
hivel=84
key=C3
lovel=43
offset=705
sample=6Horns_staccato_MF_C3_RR4.opus

<region>
hivel=84
key=C4
lovel=43
offset=448
sample=6Horns_staccato_MF_C4_RR4.opus

<region>
hivel=84
key=C5
lovel=43
offset=83
sample=6Horns_staccato_MF_C5_RR4.opus

<region>
hivel=84
key=D#3
lovel=43
offset=166
sample=6Horns_staccato_MF_D#3_RR4.opus

<region>
hivel=84
key=D#4
lovel=43
offset=302
sample=6Horns_staccato_MF_D#4_RR4.opus

<region>
hivel=84
key=D#5
lovel=43
offset=13
sample=6Horns_staccato_MF_D#5_RR4.opus

<region>
hivel=84
key=D3
lovel=43
offset=925
sample=6Horns_staccato_MF_D3_RR4.opus

<region>
hivel=84
key=D4
lovel=43
offset=1341
sample=6Horns_staccato_MF_D4_RR4.opus

<region>
hivel=84
key=D5
lovel=43
offset=1092
sample=6Horns_staccato_MF_D5_RR4.opus

<region>
hivel=84
key=E3
lovel=43
offset=208
sample=6Horns_staccato_MF_E3_RR4.opus

<region>
hivel=84
key=E4
lovel=43
offset=126
sample=6Horns_staccato_MF_E4_RR4.opus

<region>
hivel=84
key=E5
lovel=43
offset=649
sample=6Horns_staccato_MF_E5_RR4.opus

<region>
hivel=84
key=F#2
lovel=43
offset=1592
sample=6Horns_staccato_MF_F#2_RR4.opus

<region>
hivel=84
key=F#3
lovel=43
offset=339
sample=6Horns_staccato_MF_F#3_RR4.opus

<region>
hivel=84
key=F#4
lovel=43
offset=342
sample=6Horns_staccato_MF_F#4_RR4.opus

<region>
hivel=84
key=F2
lovel=43
offset=1169
sample=6Horns_staccato_MF_F2_RR4.opus

<region>
hivel=84
key=F3
lovel=43
offset=377
sample=6Horns_staccato_MF_F3_RR4.opus

<region>
hivel=84
key=F4
lovel=43
offset=61
sample=6Horns_staccato_MF_F4_RR4.opus

<region>
hivel=84
key=F5
lovel=43
offset=898
sample=6Horns_staccato_MF_F5_RR4.opus

<region>
hivel=84
key=G#2
lovel=43
offset=895
sample=6Horns_staccato_MF_G#2_RR4.opus

<region>
hivel=84
key=G#3
lovel=43
offset=228
sample=6Horns_staccato_MF_G#3_RR4.opus

<region>
hivel=84
key=G#4
lovel=43
offset=1018
sample=6Horns_staccato_MF_G#4_RR4.opus

<region>
hivel=84
key=G2
lovel=43
offset=498
sample=6Horns_staccato_MF_G2_RR4.opus

<region>
hivel=84
key=G3
lovel=43
offset=493
sample=6Horns_staccato_MF_G3_RR4.opus

<region>
hivel=84
key=G4
lovel=43
offset=719
sample=6Horns_staccato_MF_G4_RR4.opus

<region>
hivel=42
key=A#2
lovel=0
offset=1270
sample=6Horns_staccato_PP_A#2_RR4.opus

<region>
hivel=42
key=A#3
lovel=0
offset=914
sample=6Horns_staccato_PP_A#3_RR4.opus

<region>
hivel=42
key=A#4
lovel=0
sample=6Horns_staccato_PP_A#4_RR4.opus

<region>
hivel=42
key=A2
lovel=0
offset=1436
sample=6Horns_staccato_PP_A2_RR4.opus

<region>
hivel=42
key=A3
lovel=0
offset=550
sample=6Horns_staccato_PP_A3_RR4.opus

<region>
hivel=42
key=A4
lovel=0
sample=6Horns_staccato_PP_A4_RR4.opus

<region>
hivel=42
key=B2
lovel=0
offset=621
sample=6Horns_staccato_PP_B2_RR4.opus

<region>
hivel=42
key=B3
lovel=0
offset=14272
sample=6Horns_staccato_PP_B3_RR4.opus

<region>
hivel=42
key=B4
lovel=0
offset=318
sample=6Horns_staccato_PP_B4_RR4.opus

<region>
hivel=42
key=C#3
lovel=0
offset=629
sample=6Horns_staccato_PP_C#3_RR4.opus

<region>
hivel=42
key=C#4
lovel=0
offset=773
sample=6Horns_staccato_PP_C#4_RR4.opus

<region>
hivel=42
key=C#5
lovel=0
sample=6Horns_staccato_PP_C#5_RR4.opus

<region>
hivel=42
key=C3
lovel=0
offset=1366
sample=6Horns_staccato_PP_C3_RR4.opus

<region>
hivel=42
key=C4
lovel=0
offset=300
sample=6Horns_staccato_PP_C4_RR4.opus

<region>
hivel=42
key=C5
lovel=0
sample=6Horns_staccato_PP_C5_RR4.opus

<region>
hivel=42
key=D#3
lovel=0
offset=460
sample=6Horns_staccato_PP_D#3_RR4.opus

<region>
hivel=42
key=D#4
lovel=0
offset=1241
sample=6Horns_staccato_PP_D#4_RR4.opus

<region>
hivel=42
key=D#5
lovel=0
sample=6Horns_staccato_PP_D#5_RR4.opus

<region>
hivel=42
key=D3
lovel=0
offset=1833
sample=6Horns_staccato_PP_D3_RR4.opus

<region>
hivel=42
key=D4
lovel=0
offset=617
sample=6Horns_staccato_PP_D4_RR4.opus

<region>
hivel=42
key=D5
lovel=0
offset=338
sample=6Horns_staccato_PP_D5_RR4.opus

<region>
hivel=42
key=E3
lovel=0
offset=533
sample=6Horns_staccato_PP_E3_RR4.opus

<region>
hivel=42
key=E4
lovel=0
offset=400
sample=6Horns_staccato_PP_E4_RR4.opus

<region>
hivel=42
key=E5
lovel=0
sample=6Horns_staccato_PP_E5_RR4.opus

<region>
hivel=42
key=F#2
lovel=0
offset=1012
sample=6Horns_staccato_PP_F#2_RR4.opus

<region>
hivel=42
key=F#3
lovel=0
offset=1333
sample=6Horns_staccato_PP_F#3_RR4.opus

<region>
hivel=42
key=F#4
lovel=0
offset=528
sample=6Horns_staccato_PP_F#4_RR4.opus

<region>
hivel=42
key=F2
lovel=0
offset=2006
sample=6Horns_staccato_PP_F2_RR4.opus

<region>
hivel=42
key=F3
lovel=0
offset=340
sample=6Horns_staccato_PP_F3_RR4.opus

<region>
hivel=42
key=F4
lovel=0
offset=522
sample=6Horns_staccato_PP_F4_RR4.opus

<region>
hivel=42
key=F5
lovel=0
offset=254
sample=6Horns_staccato_PP_F5_RR4.opus

<region>
hivel=42
key=G#2
lovel=0
offset=2999
sample=6Horns_staccato_PP_G#2_RR4.opus

<region>
hivel=42
key=G#3
lovel=0
offset=1835
sample=6Horns_staccato_PP_G#3_RR4.opus

<region>
hivel=42
key=G#4
lovel=0
offset=87
sample=6Horns_staccato_PP_G#4_RR4.opus

<region>
hivel=42
key=G2
lovel=0
offset=1453
sample=6Horns_staccato_PP_G2_RR4.opus

<region>
hivel=42
key=G3
lovel=0
offset=671
sample=6Horns_staccato_PP_G3_RR4.opus

<region>
hivel=42
key=G4
lovel=0
offset=615
sample=6Horns_staccato_PP_G4_RR4.opus

